<?xml version="1.0" standalone="no"?><!DOCTYPE svg PUBLIC "-//W3C//DTD SVG 1.1//EN" "http://www.w3.org/Graphics/SVG/1.1/DTD/svg11.dtd"><svg class="icon" width="200px" height="200.00px" viewBox="0 0 1024 1024" version="1.1" xmlns="http://www.w3.org/2000/svg"><path fill="#d7ead9" d="M793.6 153.6c0-6.4-6.4-6.4-12.8-6.4 0 0 0 0 0 0L678.4 128c-6.4 0-19.2 6.4-19.2 12.8 0 6.4 6.4 19.2 12.8 19.2l76.8 12.8C710.4 204.8 620.8 262.4 492.8 320 345.6 384 192 422.4 192 422.4l0 12.8c0 0 166.4-38.4 307.2-96 121.6-51.2 224-108.8 268.8-153.6l-19.2 76.8c0 6.4 0 19.2 12.8 19.2 6.4 0 19.2-6.4 19.2-12.8l19.2-102.4c0 0 0 0 0 0C800 160 800 153.6 793.6 153.6zM499.2 486.4c6.4-6.4 19.2-6.4 25.6 0l38.4 57.6 38.4 57.6c6.4 6.4 0 19.2-12.8 19.2L512 620.8 428.8 620.8c-12.8 0-19.2-12.8-12.8-19.2l38.4-57.6L499.2 486.4zM480 614.4l64 0 0 166.4-64 0 0-166.4ZM275.2 569.6c6.4-6.4 19.2-6.4 25.6 0l38.4 57.6L384 684.8c6.4 6.4 0 19.2-12.8 19.2L288 704 204.8 704c-12.8 0-19.2-12.8-12.8-19.2l38.4-57.6L275.2 569.6zM256 697.6l64 0 0 166.4-64 0 0-166.4ZM729.6 409.6c6.4-6.4 19.2-6.4 25.6 0l38.4 57.6 38.4 57.6c6.4 6.4 0 19.2-12.8 19.2l-83.2 0-83.2 0c-12.8 0-19.2-12.8-12.8-19.2l38.4-57.6L729.6 409.6zM716.8 544l64 0 0 166.4-64 0 0-166.4Z" /></svg>